<svg id="Layer_1" data-name="Layer 1" xmlns="http://www.w3.org/2000/svg" viewBox="0 0 512 512"><defs><style>.cls-1{fill:#ff6004;}</style></defs><path class="cls-1" d="M256,512C114.62,512,0,397.38,0,256S114.62,0,256,0,512,114.62,512,256,397.32,511.85,256,512Zm0-469.33C138.18,42.67,42.67,138.18,42.67,256S138.18,469.33,256,469.33,469.33,373.82,469.33,256,373.77,42.8,256,42.67ZM376.87,335.91A21.33,21.33,0,1,0,348.5,304h0A160.15,160.15,0,0,1,256,341.33a160.16,160.16,0,0,1-92.46-37.24,21.33,21.33,0,1,0-28.41,31.82A201.67,201.67,0,0,0,256,384,201.67,201.67,0,0,0,376.87,335.91ZM128,213.33c0,21.34,19.09,21.34,42.67,21.34s42.66,0,42.66-21.34a42.67,42.67,0,0,0-85.33,0Zm170.67,0c0,21.34,19.09,21.34,42.66,21.34s42.67,0,42.67-21.34a42.67,42.67,0,0,0-85.33,0Z" transform="translate(0 0)"/></svg>