<svg id="Outline" xmlns="http://www.w3.org/2000/svg" viewBox="0 0 512 512"><defs><style>.cls-1{fill:#ff6004;}</style></defs><path class="cls-1" d="M149.33,0h-64A85.34,85.34,0,0,0,0,85.33v64a85.34,85.34,0,0,0,85.33,85.34h64a85.34,85.34,0,0,0,85.34-85.34v-64A85.34,85.34,0,0,0,149.33,0ZM192,149.33A42.66,42.66,0,0,1,149.33,192h-64a42.66,42.66,0,0,1-42.66-42.67v-64A42.66,42.66,0,0,1,85.33,42.67h64A42.66,42.66,0,0,1,192,85.33Z" transform="translate(0 0)"/><path class="cls-1" d="M149.33,277.33h-64A85.34,85.34,0,0,0,0,362.67v64A85.34,85.34,0,0,0,85.33,512h64a85.34,85.34,0,0,0,85.34-85.33v-64A85.34,85.34,0,0,0,149.33,277.33ZM192,426.67a42.66,42.66,0,0,1-42.67,42.66h-64a42.66,42.66,0,0,1-42.66-42.66v-64A42.66,42.66,0,0,1,85.33,320h64A42.66,42.66,0,0,1,192,362.67Z" transform="translate(0 0)"/><path class="cls-1" d="M426.67,277.33h-64a85.34,85.34,0,0,0-85.34,85.34v64A85.34,85.34,0,0,0,362.67,512h64A85.34,85.34,0,0,0,512,426.67v-64A85.34,85.34,0,0,0,426.67,277.33Zm42.66,149.34a42.66,42.66,0,0,1-42.66,42.66h-64A42.66,42.66,0,0,1,320,426.67v-64A42.66,42.66,0,0,1,362.67,320h64a42.66,42.66,0,0,1,42.66,42.67Z" transform="translate(0 0)"/><path class="cls-1" d="M298.67,149.33h64v64a21.33,21.33,0,1,0,42.66,0v-64h64a21.33,21.33,0,1,0,0-42.66h-64v-64a21.33,21.33,0,1,0-42.66,0v64h-64a21.33,21.33,0,1,0,0,42.66Z" transform="translate(0 0)"/></svg>